<svg width="18" height="18" viewBox="0 0 18 18" fill="none" xmlns="http://www.w3.org/2000/svg">
<g id="bxs:home" clip-path="url(#clip0_10_461)">
<path id="Vector" d="M16.7926 9.25919L9.5933 1.25338C9.29012 0.915539 8.70778 0.915539 8.40461 1.25338L1.20528 9.25919C1.10184 9.37425 1.03394 9.51686 1.0098 9.66974C0.985666 9.82263 1.00633 9.97924 1.0693 10.1206C1.19728 10.4096 1.48366 10.5954 1.79963 10.5954H3.39948V16.1994C3.39948 16.4117 3.48375 16.6154 3.63377 16.7655C3.78378 16.9157 3.98725 17 4.1994 17H6.59918C6.81133 17 7.01479 16.9157 7.16481 16.7655C7.31482 16.6154 7.3991 16.4117 7.3991 16.1994V12.9971H10.5988V16.1994C10.5988 16.4117 10.6831 16.6154 10.8331 16.7655C10.9831 16.9157 11.1866 17 11.3987 17H13.7985C14.0107 17 14.2141 16.9157 14.3641 16.7655C14.5141 16.6154 14.5984 16.4117 14.5984 16.1994V10.5954H16.1983C16.3532 10.596 16.505 10.5516 16.6351 10.4674C16.7652 10.3832 16.868 10.263 16.931 10.1213C16.994 9.97968 17.0145 9.82275 16.9899 9.66967C16.9653 9.51658 16.8968 9.37396 16.7926 9.25919Z" fill="#141414" stroke="#141414"/>
</g>
<defs>
<clipPath id="clip0_10_461">
<rect width="18" height="18" fill="white"/>
</clipPath>
</defs>
</svg>
