<svg width="20" height="26" viewBox="0 0 20 26" fill="none" xmlns="http://www.w3.org/2000/svg">
<g id="Group">
<g id="Vector">
<path d="M10 25C17.2 25 19 19.588 19 13C19 6.412 17.2 1 10 1C2.8 1 1 6.412 1 13C1 19.588 2.8 25 10 25ZM9.9856 6.8068V9.7588V12.7108" fill="white"/>
<path d="M9.9856 6.8068V9.7588V12.7108M10 25C17.2 25 19 19.588 19 13C19 6.412 17.2 1 10 1C2.8 1 1 6.412 1 13C1 19.588 2.8 25 10 25Z" stroke="#141414" stroke-width="1.5" stroke-linecap="round" stroke-linejoin="round"/>
</g>
<path id="Vector_2" d="M7.59521 8.03087C8.77601 6.80687 9.49601 5.72687 10.0432 5.80367C10.504 5.80007 10.936 6.51887 12.4048 8.03087M12.4048 11.9681C11.224 13.1921 10.504 14.2721 9.95681 14.1953C9.49601 14.1989 9.06401 13.4813 7.59521 11.9693" stroke="#141414" stroke-width="1.5" stroke-linecap="round" stroke-linejoin="round"/>
</g>
</svg>
