<svg width="852" height="511" viewBox="0 0 852 511" fill="none" xmlns="http://www.w3.org/2000/svg">
<path d="M547 225C547 295.144 490.36 352 420.5 352C350.64 352 294 295.144 294 225C294 154.856 350.64 98 420.5 98C490.36 98 547 154.856 547 225Z" fill="#FFEFCF" fill-opacity="0.3" stroke="#EEAB3C" stroke-width="2"/>
<path d="M652 383C652 453.144 595.36 510 525.5 510C455.64 510 399 453.144 399 383C399 312.856 455.64 256 525.5 256C595.36 256 652 312.856 652 383Z" fill="#D4E5FB" fill-opacity="0.3" stroke="#5F97E0" stroke-width="2"/>
<path d="M447 383C447 453.144 390.36 510 320.5 510C250.64 510 194 453.144 194 383C194 312.856 250.64 256 320.5 256C390.36 256 447 312.856 447 383Z" fill="#EADFF6" fill-opacity="0.3" stroke="#987CE4" stroke-width="2"/>
<path d="M406.259 190.84C406.259 194.627 404.099 196.52 399.779 196.52H398.179V198.12H407.619V203.16H381.659V198.12H390.859V196.52H389.139C384.819 196.52 382.659 194.627 382.659 190.84C382.659 187.027 384.819 185.12 389.139 185.12H399.779C404.099 185.12 406.259 187.027 406.259 190.84ZM409.259 177.2H416.419V189.24H421.099V195.48H416.419V206.36H409.259V177.2ZM393.379 204.52V208.96H417.179V214.28H386.099V204.52H393.379ZM381.739 179.28H390.859V176.16H398.179V179.28H407.219V184.12H381.739V179.28ZM398.939 190.84C398.939 190.067 398.512 189.68 397.659 189.68H391.259C390.379 189.68 389.939 190.067 389.939 190.84C389.939 191.587 390.379 191.96 391.259 191.96H397.659C398.512 191.96 398.939 191.587 398.939 190.84ZM432.96 197.24C433.707 194.973 434.453 192.76 435.2 190.6C435.973 188.44 436.733 186.227 437.48 183.96H423.68V178.04H446.28L445.4 180.92H450.64V177.2H457.76V198.04H450.64V194.32H442.84V189.48L440.44 197.24H432.96ZM426.44 206.84C426.44 204.493 427.107 202.613 428.44 201.2C429.8 199.76 431.867 199.04 434.64 199.04H450.28C453.053 199.04 455.12 199.76 456.48 201.2C457.84 202.613 458.52 204.493 458.52 206.84C458.52 209.187 457.84 211.067 456.48 212.48C455.12 213.92 453.053 214.64 450.28 214.64H434.64C431.867 214.64 429.8 213.92 428.44 212.48C427.107 211.067 426.44 209.187 426.44 206.84ZM433.52 206.84C433.52 207.667 433.787 208.213 434.32 208.48C434.853 208.773 435.64 208.92 436.68 208.92H449.04C450.64 208.92 451.44 208.227 451.44 206.84C451.44 206.04 451.173 205.493 450.64 205.2C450.107 204.907 449.32 204.76 448.28 204.76H435.92C435.12 204.76 434.52 204.947 434.12 205.32C433.72 205.693 433.52 206.2 433.52 206.84ZM443.68 186.64C443.573 187.013 443.467 187.387 443.36 187.76C443.253 188.107 443.133 188.467 443 188.84H450.64V186.64H443.68Z" fill="#EEAB3C"/>
<path d="M328.775 237.78C328.775 239.033 328.841 240.093 328.975 240.96C329.108 241.827 329.321 242.533 329.615 243.08C329.908 243.627 330.288 244.02 330.755 244.26C331.235 244.513 331.808 244.64 332.475 244.64V247.46C331.275 247.46 330.235 247.293 329.355 246.96C328.475 246.64 327.748 246.1 327.175 245.34C326.601 244.593 326.175 243.607 325.895 242.38C325.628 241.14 325.495 239.607 325.495 237.78C325.495 235.967 325.628 234.447 325.895 233.22C326.175 231.98 326.601 230.987 327.175 230.24C327.748 229.48 328.475 228.94 329.355 228.62C330.235 228.287 331.275 228.12 332.475 228.12V230.94C331.835 230.94 331.281 231.06 330.815 231.3C330.348 231.527 329.961 231.913 329.655 232.46C329.361 232.993 329.141 233.7 328.995 234.58C328.848 235.447 328.775 236.513 328.775 237.78ZM339.219 239.82C339.592 238.527 339.965 237.253 340.339 236C340.725 234.747 341.105 233.473 341.479 232.18H334.479V229.22H345.899C345.725 229.873 345.545 230.527 345.359 231.18C345.185 231.82 345.012 232.467 344.839 233.12H347.939V228.6H351.519V242.16H347.939V236.26H343.999L342.979 239.82H339.219ZM340.079 240.76V244.18H351.879V247.14H336.499V240.76H340.079ZM359.569 238.62C359.943 237.487 360.316 236.38 360.689 235.3C361.076 234.22 361.456 233.113 361.829 231.98H354.849V229.02H366.289C365.796 230.633 365.303 232.233 364.809 233.82C364.329 235.407 363.849 237.007 363.369 238.62H359.569ZM367.769 228.6H371.349V232.2H373.669V235.3H371.349V239.02H367.769V228.6ZM355.909 243.42C355.909 242.247 356.243 241.307 356.909 240.6C357.589 239.88 358.623 239.52 360.009 239.52H367.609C368.996 239.52 370.029 239.88 370.709 240.6C371.389 241.307 371.729 242.247 371.729 243.42C371.729 244.593 371.389 245.533 370.709 246.24C370.029 246.96 368.996 247.32 367.609 247.32H360.009C358.623 247.32 357.589 246.96 356.909 246.24C356.243 245.533 355.909 244.593 355.909 243.42ZM359.449 243.42C359.449 243.833 359.583 244.107 359.849 244.24C360.116 244.387 360.503 244.46 361.009 244.46H366.989C367.789 244.46 368.189 244.113 368.189 243.42C368.189 243.02 368.056 242.747 367.789 242.6C367.523 242.453 367.136 242.38 366.629 242.38H360.649C360.249 242.38 359.949 242.473 359.749 242.66C359.549 242.847 359.449 243.1 359.449 243.42ZM376.68 243.46C376.68 242.287 377.013 241.353 377.68 240.66C378.36 239.953 379.4 239.6 380.8 239.6H388.6C390 239.6 391.033 239.953 391.7 240.66C392.38 241.353 392.72 242.287 392.72 243.46C392.72 244.633 392.38 245.567 391.7 246.26C391.033 246.967 390 247.32 388.6 247.32H380.8C379.4 247.32 378.36 246.967 377.68 246.26C377.013 245.567 376.68 244.633 376.68 243.46ZM385.82 231.94H388.76V228.6H392.34V239.12H388.76V235.04H385.82V231.94ZM380.28 243.46C380.28 243.86 380.413 244.127 380.68 244.26C380.947 244.407 381.333 244.48 381.84 244.48H387.94C388.353 244.48 388.653 244.387 388.84 244.2C389.027 244.013 389.12 243.767 389.12 243.46C389.12 243.073 389 242.807 388.76 242.66C388.52 242.513 388.12 242.44 387.56 242.44H381.48C381.08 242.44 380.78 242.533 380.58 242.72C380.38 242.893 380.28 243.14 380.28 243.46ZM379.04 231.72L379.06 228.62H382.64V231.72L387.38 238.52H383.62L380.84 234.6L378.06 238.52H374.3L379.04 231.72ZM395.811 243.68H399.491L398.051 248.62H395.351L395.811 243.68ZM421.228 243.14V246.26H407.808V243.14H412.608V241.82C411.115 241.82 409.982 241.46 409.208 240.74C408.435 240.02 408.048 238.993 408.048 237.66C408.048 236.327 408.435 235.287 409.208 234.54C409.995 233.793 411.135 233.42 412.628 233.42H416.088C417.582 233.42 418.715 233.793 419.488 234.54C420.275 235.287 420.668 236.327 420.668 237.66C420.668 238.993 420.302 239.993 419.568 240.66C418.848 241.327 417.762 241.713 416.308 241.82V243.14H421.228ZM421.968 228.6H425.548V247.32H421.968V228.6ZM407.808 229.96H412.548V228.1H416.268V229.96H421.068V232.88H407.808V229.96ZM411.568 237.66C411.568 238.153 411.702 238.5 411.968 238.7C412.248 238.9 412.688 239 413.288 239H415.788C416.762 239 417.248 238.553 417.248 237.66C417.248 237.193 417.108 236.853 416.828 236.64C416.562 236.427 416.128 236.32 415.528 236.32H413.028C412.055 236.32 411.568 236.767 411.568 237.66ZM439.379 236.74V237.82H446.899V240.58H428.099V237.82H435.539V236.74H429.499V228.54H433.099V230.04H441.879V228.54H445.479V236.74H439.379ZM441.939 247.46V244.42H428.979V241.48H445.659V247.46H441.939ZM441.879 234.08V232.74H433.099V234.08H441.879ZM449.289 229H459.789V231.54H452.809V233.06H459.289V235.5H452.809V237.3L460.729 236.9V239.52C458.769 239.627 456.863 239.727 455.009 239.82C453.156 239.9 451.249 239.993 449.289 240.1V229ZM462.029 228.6H465.609V233.12H468.029V236.22H465.609V242.36H462.029V228.6ZM454.469 241.16V244.18H465.969V247.14H450.869V241.16H454.469ZM469.82 233.2H475.46V231.3H469.82V228.8H478.96V235.58H473.38V237.58C474.673 237.513 475.96 237.453 477.24 237.4C478.533 237.333 479.827 237.267 481.12 237.2V239.82L469.82 240.34V233.2ZM479.96 230.1H482.88V228.6H486.46V240.68H482.88V236.74H479.96V234.02H482.88V232.86H479.96V230.1ZM482.9 247.46V244.32H471.06V241.38H486.46V247.46H482.9ZM491.231 243.46C491.231 242.287 491.564 241.353 492.231 240.66C492.911 239.953 493.951 239.6 495.351 239.6H503.151C504.551 239.6 505.584 239.953 506.251 240.66C506.931 241.353 507.271 242.287 507.271 243.46C507.271 244.633 506.931 245.567 506.251 246.26C505.584 246.967 504.551 247.32 503.151 247.32H495.351C493.951 247.32 492.911 246.967 492.231 246.26C491.564 245.567 491.231 244.633 491.231 243.46ZM500.371 231.94H503.311V228.6H506.891V239.12H503.311V235.04H500.371V231.94ZM494.831 243.46C494.831 243.86 494.964 244.127 495.231 244.26C495.497 244.407 495.884 244.48 496.391 244.48H502.491C502.904 244.48 503.204 244.387 503.391 244.2C503.577 244.013 503.671 243.767 503.671 243.46C503.671 243.073 503.551 242.807 503.311 242.66C503.071 242.513 502.671 242.44 502.111 242.44H496.031C495.631 242.44 495.331 242.533 495.131 242.72C494.931 242.893 494.831 243.14 494.831 243.46ZM493.591 231.72L493.611 228.62H497.191V231.72L501.931 238.52H498.171L495.391 234.6L492.611 238.52H488.851L493.591 231.72ZM513.201 237.78C513.201 236.5 513.128 235.427 512.981 234.56C512.835 233.693 512.608 232.993 512.301 232.46C512.008 231.913 511.628 231.527 511.161 231.3C510.695 231.06 510.141 230.94 509.501 230.94V228.12C510.701 228.12 511.741 228.287 512.621 228.62C513.501 228.94 514.228 229.48 514.801 230.24C515.375 230.987 515.795 231.98 516.061 233.22C516.341 234.447 516.481 235.967 516.481 237.78C516.481 239.607 516.341 241.14 516.061 242.38C515.781 243.607 515.355 244.593 514.781 245.34C514.221 246.1 513.501 246.64 512.621 246.96C511.741 247.293 510.701 247.46 509.501 247.46V244.64C510.168 244.64 510.735 244.513 511.201 244.26C511.668 244.02 512.048 243.627 512.341 243.08C512.648 242.533 512.868 241.827 513.001 240.96C513.135 240.093 513.201 239.033 513.201 237.78Z" fill="#EEAB3C"/>
<path d="M361.885 2.46H364.985V0.0999997H368.485V2.46H371.365V5.32H361.885V2.46ZM380.345 19.32H377.025V10.64H375.585V19.16H372.305V0.599999H375.585V7.38H377.025V0.599999H380.345V19.32ZM366.745 5.96C368.198 5.96 369.278 6.30667 369.985 7C370.705 7.68 371.065 8.78 371.065 10.3V13.94C371.065 15.46 370.705 16.56 369.985 17.24C369.278 17.9333 368.198 18.28 366.745 18.28C365.291 18.28 364.198 17.9333 363.465 17.24C362.745 16.56 362.385 15.46 362.385 13.94V10.3C362.385 8.78 362.745 7.68 363.465 7C364.198 6.30667 365.291 5.96 366.745 5.96ZM366.745 8.76C366.305 8.76 366.005 8.88667 365.845 9.14C365.698 9.39333 365.625 9.76667 365.625 10.26V13.98C365.625 14.4733 365.698 14.8467 365.845 15.1C366.005 15.3533 366.305 15.48 366.745 15.48C367.171 15.48 367.465 15.3533 367.625 15.1C367.785 14.8467 367.865 14.4733 367.865 13.98V10.26C367.865 9.76667 367.785 9.39333 367.625 9.14C367.465 8.88667 367.171 8.76 366.745 8.76ZM384.035 15.32C384.035 14.12 384.382 13.1533 385.075 12.42C385.769 11.6867 386.809 11.32 388.195 11.32H395.695C397.082 11.32 398.122 11.6867 398.815 12.42C399.509 13.1533 399.855 14.12 399.855 15.32C399.855 16.52 399.509 17.4867 398.815 18.22C398.122 18.9533 397.082 19.32 395.695 19.32H388.195C386.809 19.32 385.769 18.9533 385.075 18.22C384.382 17.4867 384.035 16.52 384.035 15.32ZM387.595 15.32C387.595 15.7467 387.729 16.04 387.995 16.2C388.275 16.36 388.675 16.44 389.195 16.44H394.715C395.235 16.44 395.629 16.36 395.895 16.2C396.175 16.04 396.315 15.7467 396.315 15.32C396.315 14.8933 396.175 14.6 395.895 14.44C395.629 14.28 395.235 14.2 394.715 14.2H389.195C388.675 14.2 388.275 14.28 387.995 14.44C387.729 14.6 387.595 14.8933 387.595 15.32ZM395.915 0.599999H399.495V1.96H401.855V4.86H399.495V6.26H401.855V9.18H399.495V10.82H395.915V0.599999ZM382.615 5.22C382.615 4.58 382.722 3.96667 382.935 3.38C383.162 2.79333 383.509 2.28 383.975 1.84C384.442 1.4 385.049 1.04667 385.795 0.779999C386.542 0.513333 387.449 0.38 388.515 0.38C389.569 0.38 390.469 0.513333 391.215 0.779999C391.962 1.04667 392.569 1.4 393.035 1.84C393.515 2.28 393.862 2.79333 394.075 3.38C394.289 3.96667 394.395 4.58 394.395 5.22V5.82C394.395 6.44667 394.289 7.04667 394.075 7.62C393.862 8.18 393.515 8.68 393.035 9.12C392.569 9.56 391.962 9.91333 391.215 10.18C390.469 10.4333 389.569 10.56 388.515 10.56C387.449 10.56 386.542 10.4333 385.795 10.18C385.049 9.91333 384.442 9.56 383.975 9.12C383.509 8.68 383.162 8.18 382.935 7.62C382.722 7.04667 382.615 6.44667 382.615 5.82V5.22ZM390.915 5.34C390.915 4.7 390.722 4.19333 390.335 3.82C389.962 3.44667 389.355 3.26 388.515 3.26C387.662 3.26 387.042 3.44667 386.655 3.82C386.282 4.19333 386.095 4.7 386.095 5.34V5.7C386.095 6.34 386.282 6.84667 386.655 7.22C387.042 7.59333 387.662 7.78 388.515 7.78C389.355 7.78 389.962 7.59333 390.335 7.22C390.722 6.84667 390.915 6.34 390.915 5.7V5.34ZM416.026 10.88H412.866V0.599999H416.026V3.96H417.686V0.599999H420.906V11.08H417.686V7.16H416.026V10.88ZM405.086 15.44C405.086 14.2667 405.426 13.3267 406.106 12.62C406.786 11.9133 407.819 11.56 409.206 11.56H417.126C418.513 11.56 419.546 11.9133 420.226 12.62C420.906 13.3267 421.246 14.2667 421.246 15.44C421.246 16.6133 420.906 17.5533 420.226 18.26C419.546 18.9667 418.513 19.32 417.126 19.32H409.206C407.819 19.32 406.786 18.9667 406.106 18.26C405.426 17.5533 405.086 16.6133 405.086 15.44ZM408.706 15.44C408.706 15.8667 408.833 16.14 409.086 16.26C409.353 16.3933 409.753 16.46 410.286 16.46H416.446C416.873 16.46 417.173 16.3733 417.346 16.2C417.533 16.0267 417.626 15.7733 417.626 15.44C417.626 15.04 417.506 14.7733 417.266 14.64C417.026 14.4933 416.626 14.42 416.066 14.42H409.906C409.106 14.42 408.706 14.76 408.706 15.44ZM405.666 3.52L405.686 0.719999H409.266V3.52L412.606 10.52H409.046L407.466 6.96L405.886 10.52H402.326L405.666 3.52ZM441.456 19.32H438.136V10.44H436.416V19.16H433.136V0.599999H436.416V7.18H438.136V0.599999H441.456V19.32ZM427.116 4V7.56H431.336V10.44H427.116V14.76L432.356 14.12V17.08C430.903 17.24 429.47 17.4 428.056 17.56C426.656 17.7333 425.23 17.9 423.776 18.06V1.04H431.756V4H427.116ZM446.747 17.8C447.08 15.52 447.407 13.2933 447.727 11.12C448.06 8.93333 448.394 6.69333 448.727 4.4H443.847V1.34H452.627L452.147 4.9H454.067V0.599999H457.307V19.16H454.067V13.86H450.947C450.84 14.54 450.747 15.2 450.667 15.84C450.587 16.4667 450.494 17.12 450.387 17.8H446.747ZM458.727 0.599999H462.047V19.32H458.727V0.599999ZM451.767 7.84L451.327 10.92H454.067V7.84H451.767ZM464.678 15.68H468.358L466.918 20.62H464.218L464.678 15.68ZM375.245 40.88H372.085V30.6H375.245V33.96H376.905V30.6H380.125V41.08H376.905V37.16H375.245V40.88ZM364.305 45.44C364.305 44.2667 364.645 43.3267 365.325 42.62C366.005 41.9133 367.038 41.56 368.425 41.56H376.345C377.731 41.56 378.765 41.9133 379.445 42.62C380.125 43.3267 380.465 44.2667 380.465 45.44C380.465 46.6133 380.125 47.5533 379.445 48.26C378.765 48.9667 377.731 49.32 376.345 49.32H368.425C367.038 49.32 366.005 48.9667 365.325 48.26C364.645 47.5533 364.305 46.6133 364.305 45.44ZM367.925 45.44C367.925 45.8667 368.051 46.14 368.305 46.26C368.571 46.3933 368.971 46.46 369.505 46.46H375.665C376.091 46.46 376.391 46.3733 376.565 46.2C376.751 46.0267 376.845 45.7733 376.845 45.44C376.845 45.04 376.725 44.7733 376.485 44.64C376.245 44.4933 375.845 44.42 375.285 44.42H369.125C368.325 44.42 367.925 44.76 367.925 45.44ZM364.885 33.52L364.905 30.72H368.485V33.52L371.825 40.52H368.265L366.685 36.96L365.105 40.52H361.545L364.885 33.52ZM396.315 43.96V43.26H383.675V40.9H389.855V40.02H382.415V37.4H401.215V40.02H393.695V40.9H399.935V46.22H387.295V46.94H400.235V49.42H383.675V43.96H396.315ZM383.815 36.68V30.48H399.795V36.68H383.815ZM387.375 34.2H396.235V33H387.375V34.2ZM406.886 34.3V44.36L414.846 43.72V46.78C412.873 46.94 410.946 47.1 409.066 47.26C407.199 47.4333 405.279 47.6 403.306 47.76V31.24H413.966V34.3H406.886ZM416.066 30.6H419.646V37.16H422.346V40.28H419.646V49.32H416.066V30.6ZM424.816 45.32C424.816 44.12 425.163 43.1533 425.856 42.42C426.55 41.6867 427.59 41.32 428.976 41.32H436.476C437.863 41.32 438.903 41.6867 439.596 42.42C440.29 43.1533 440.636 44.12 440.636 45.32C440.636 46.52 440.29 47.4867 439.596 48.22C438.903 48.9533 437.863 49.32 436.476 49.32H428.976C427.59 49.32 426.55 48.9533 425.856 48.22C425.163 47.4867 424.816 46.52 424.816 45.32ZM428.376 45.32C428.376 45.7467 428.51 46.04 428.776 46.2C429.056 46.36 429.456 46.44 429.976 46.44H435.496C436.016 46.44 436.41 46.36 436.676 46.2C436.956 46.04 437.096 45.7467 437.096 45.32C437.096 44.8933 436.956 44.6 436.676 44.44C436.41 44.28 436.016 44.2 435.496 44.2H429.976C429.456 44.2 429.056 44.28 428.776 44.44C428.51 44.6 428.376 44.8933 428.376 45.32ZM436.696 30.6H440.276V31.96H442.636V34.86H440.276V36.26H442.636V39.18H440.276V40.82H436.696V30.6ZM423.396 35.22C423.396 34.58 423.503 33.9667 423.716 33.38C423.943 32.7933 424.29 32.28 424.756 31.84C425.223 31.4 425.83 31.0467 426.576 30.78C427.323 30.5133 428.23 30.38 429.296 30.38C430.35 30.38 431.25 30.5133 431.996 30.78C432.743 31.0467 433.35 31.4 433.816 31.84C434.296 32.28 434.643 32.7933 434.856 33.38C435.07 33.9667 435.176 34.58 435.176 35.22V35.82C435.176 36.4467 435.07 37.0467 434.856 37.62C434.643 38.18 434.296 38.68 433.816 39.12C433.35 39.56 432.743 39.9133 431.996 40.18C431.25 40.4333 430.35 40.56 429.296 40.56C428.23 40.56 427.323 40.4333 426.576 40.18C425.83 39.9133 425.223 39.56 424.756 39.12C424.29 38.68 423.943 38.18 423.716 37.62C423.503 37.0467 423.396 36.4467 423.396 35.82V35.22ZM431.696 35.34C431.696 34.7 431.503 34.1933 431.116 33.82C430.743 33.4467 430.136 33.26 429.296 33.26C428.443 33.26 427.823 33.4467 427.436 33.82C427.063 34.1933 426.876 34.7 426.876 35.34V35.7C426.876 36.34 427.063 36.8467 427.436 37.22C427.823 37.5933 428.443 37.78 429.296 37.78C430.136 37.78 430.743 37.5933 431.116 37.22C431.503 36.8467 431.696 36.34 431.696 35.7V35.34ZM445.547 45.46C445.547 44.2867 445.88 43.3533 446.547 42.66C447.227 41.9533 448.267 41.6 449.667 41.6H457.467C458.867 41.6 459.9 41.9533 460.567 42.66C461.247 43.3533 461.587 44.2867 461.587 45.46C461.587 46.6333 461.247 47.5667 460.567 48.26C459.9 48.9667 458.867 49.32 457.467 49.32H449.667C448.267 49.32 447.227 48.9667 446.547 48.26C445.88 47.5667 445.547 46.6333 445.547 45.46ZM454.687 33.94H457.627V30.6H461.207V41.12H457.627V37.04H454.687V33.94ZM449.147 45.46C449.147 45.86 449.28 46.1267 449.547 46.26C449.814 46.4067 450.2 46.48 450.707 46.48H456.807C457.22 46.48 457.52 46.3867 457.707 46.2C457.894 46.0133 457.987 45.7667 457.987 45.46C457.987 45.0733 457.867 44.8067 457.627 44.66C457.387 44.5133 456.987 44.44 456.427 44.44H450.347C449.947 44.44 449.647 44.5333 449.447 44.72C449.247 44.8933 449.147 45.14 449.147 45.46ZM447.907 33.72L447.927 30.62H451.507V33.72L456.247 40.52H452.487L449.707 36.6L446.927 40.52H443.167L447.907 33.72ZM464.678 45.68H468.358L466.918 50.62H464.218L464.678 45.68ZM371.348 70.88H368.188V60.6H371.348V63.96H373.008V60.6H376.228V71.08H373.008V67.16H371.348V70.88ZM360.408 75.44C360.408 74.2667 360.748 73.3267 361.428 72.62C362.108 71.9133 363.141 71.56 364.528 71.56H372.448C373.835 71.56 374.868 71.9133 375.548 72.62C376.228 73.3267 376.568 74.2667 376.568 75.44C376.568 76.6133 376.228 77.5533 375.548 78.26C374.868 78.9667 373.835 79.32 372.448 79.32H364.528C363.141 79.32 362.108 78.9667 361.428 78.26C360.748 77.5533 360.408 76.6133 360.408 75.44ZM364.028 75.44C364.028 75.8667 364.155 76.14 364.408 76.26C364.675 76.3933 365.075 76.46 365.608 76.46H371.768C372.195 76.46 372.495 76.3733 372.668 76.2C372.855 76.0267 372.948 75.7733 372.948 75.44C372.948 75.04 372.828 74.7733 372.588 74.64C372.348 74.4933 371.948 74.42 371.388 74.42H365.228C364.428 74.42 364.028 74.76 364.028 75.44ZM360.988 63.52L361.008 60.72H364.588V63.52L367.928 70.52H364.368L362.788 66.96L361.208 70.52H357.648L360.988 63.52ZM396.779 79.32H393.459V70.44H391.739V79.16H388.459V60.6H391.739V67.18H393.459V60.6H396.779V79.32ZM382.439 64V67.56H386.659V70.44H382.439V74.76L387.679 74.12V77.08C386.225 77.24 384.792 77.4 383.379 77.56C381.979 77.7333 380.552 77.9 379.099 78.06V61.04H387.079V64H382.439ZM402.069 77.8C402.403 75.52 402.729 73.2933 403.049 71.12C403.383 68.9333 403.716 66.6933 404.049 64.4H399.169V61.34H407.949L407.469 64.9H409.389V60.6H412.629V79.16H409.389V73.86H406.269C406.163 74.54 406.069 75.2 405.989 75.84C405.909 76.4667 405.816 77.12 405.709 77.8H402.069ZM414.049 60.6H417.369V79.32H414.049V60.6ZM407.089 67.84L406.649 70.92H409.389V67.84H407.089ZM429.8 66.78H433.3V60.6H436.9V79.32H433.3V69.94H429.8V66.78ZM423.52 61.02H427.1V67.68L431.86 77.86H428.16L425.3 71.36L422.46 77.86H418.76L423.52 67.68V61.02ZM453.971 60.6H457.571V79.32H453.971V60.6ZM451.611 77.62H440.451V61.04H443.971V66.44H448.091V61.04H451.611V77.62ZM448.091 74.62V69.48H443.971V74.62H448.091ZM478.881 75.34V78.46H460.081V75.34H478.881ZM471.401 60.88V64.44L478.241 72.84H473.981L469.521 67.4L465.061 72.84H460.801L467.641 64.44V60.88H471.401Z" fill="#EEAB3C"/>
<path d="M6.53891 360.46H9.63891V358.1H13.1389V360.46H16.0189V363.32H6.53891V360.46ZM24.9989 377.32H21.6789V368.64H20.2389V377.16H16.9589V358.6H20.2389V365.38H21.6789V358.6H24.9989V377.32ZM11.3989 363.96C12.8522 363.96 13.9322 364.307 14.6389 365C15.3589 365.68 15.7189 366.78 15.7189 368.3V371.94C15.7189 373.46 15.3589 374.56 14.6389 375.24C13.9322 375.933 12.8522 376.28 11.3989 376.28C9.94557 376.28 8.85224 375.933 8.11891 375.24C7.39891 374.56 7.03891 373.46 7.03891 371.94V368.3C7.03891 366.78 7.39891 365.68 8.11891 365C8.85224 364.307 9.94557 363.96 11.3989 363.96ZM11.3989 366.76C10.9589 366.76 10.6589 366.887 10.4989 367.14C10.3522 367.393 10.2789 367.767 10.2789 368.26V371.98C10.2789 372.473 10.3522 372.847 10.4989 373.1C10.6589 373.353 10.9589 373.48 11.3989 373.48C11.8256 373.48 12.1189 373.353 12.2789 373.1C12.4389 372.847 12.5189 372.473 12.5189 371.98V368.26C12.5189 367.767 12.4389 367.393 12.2789 367.14C12.1189 366.887 11.8256 366.76 11.3989 366.76ZM28.6895 373.32C28.6895 372.12 29.0362 371.153 29.7295 370.42C30.4229 369.687 31.4629 369.32 32.8495 369.32H40.3495C41.7362 369.32 42.7762 369.687 43.4695 370.42C44.1629 371.153 44.5095 372.12 44.5095 373.32C44.5095 374.52 44.1629 375.487 43.4695 376.22C42.7762 376.953 41.7362 377.32 40.3495 377.32H32.8495C31.4629 377.32 30.4229 376.953 29.7295 376.22C29.0362 375.487 28.6895 374.52 28.6895 373.32ZM32.2495 373.32C32.2495 373.747 32.3829 374.04 32.6495 374.2C32.9295 374.36 33.3295 374.44 33.8495 374.44H39.3695C39.8895 374.44 40.2829 374.36 40.5495 374.2C40.8295 374.04 40.9695 373.747 40.9695 373.32C40.9695 372.893 40.8295 372.6 40.5495 372.44C40.2829 372.28 39.8895 372.2 39.3695 372.2H33.8495C33.3295 372.2 32.9295 372.28 32.6495 372.44C32.3829 372.6 32.2495 372.893 32.2495 373.32ZM40.5695 358.6H44.1495V359.96H46.5095V362.86H44.1495V364.26H46.5095V367.18H44.1495V368.82H40.5695V358.6ZM27.2695 363.22C27.2695 362.58 27.3762 361.967 27.5895 361.38C27.8162 360.793 28.1629 360.28 28.6295 359.84C29.0962 359.4 29.7029 359.047 30.4495 358.78C31.1962 358.513 32.1029 358.38 33.1695 358.38C34.2229 358.38 35.1229 358.513 35.8695 358.78C36.6162 359.047 37.2229 359.4 37.6895 359.84C38.1695 360.28 38.5162 360.793 38.7295 361.38C38.9429 361.967 39.0495 362.58 39.0495 363.22V363.82C39.0495 364.447 38.9429 365.047 38.7295 365.62C38.5162 366.18 38.1695 366.68 37.6895 367.12C37.2229 367.56 36.6162 367.913 35.8695 368.18C35.1229 368.433 34.2229 368.56 33.1695 368.56C32.1029 368.56 31.1962 368.433 30.4495 368.18C29.7029 367.913 29.0962 367.56 28.6295 367.12C28.1629 366.68 27.8162 366.18 27.5895 365.62C27.3762 365.047 27.2695 364.447 27.2695 363.82V363.22ZM35.5695 363.34C35.5695 362.7 35.3762 362.193 34.9895 361.82C34.6162 361.447 34.0095 361.26 33.1695 361.26C32.3162 361.26 31.6962 361.447 31.3095 361.82C30.9362 362.193 30.7495 362.7 30.7495 363.34V363.7C30.7495 364.34 30.9362 364.847 31.3095 365.22C31.6962 365.593 32.3162 365.78 33.1695 365.78C34.0095 365.78 34.6162 365.593 34.9895 365.22C35.3762 364.847 35.5695 364.34 35.5695 363.7V363.34ZM60.8802 358.6H64.4602V365.46H66.9802V368.58H64.4602V377.32H60.8802V358.6ZM55.4202 362.5V365.7L60.1602 375.86H56.4602L53.6202 369.44L50.7802 375.86H47.0802L51.8402 365.7V362.5H47.3602V359.44H59.7402V362.5H55.4202ZM80.5908 362.28C80.5908 362.867 80.4841 363.387 80.2708 363.84C80.0708 364.293 79.7308 364.673 79.2508 364.98C78.7841 365.287 78.1708 365.527 77.4108 365.7C76.6508 365.86 75.7241 365.94 74.6308 365.94C73.4974 365.94 72.5441 365.86 71.7708 365.7C70.9974 365.527 70.3708 365.287 69.8908 364.98C69.4241 364.673 69.0841 364.293 68.8708 363.84C68.6708 363.387 68.5708 362.867 68.5708 362.28C68.5708 361.707 68.6774 361.193 68.8908 360.74C69.1174 360.273 69.4708 359.88 69.9508 359.56C70.4308 359.227 71.0508 358.973 71.8108 358.8C72.5841 358.613 73.5241 358.52 74.6308 358.52C75.7241 358.52 76.6508 358.613 77.4108 358.8C78.1708 358.973 78.7841 359.227 79.2508 359.56C79.7308 359.88 80.0708 360.273 80.2708 360.74C80.4841 361.193 80.5908 361.707 80.5908 362.28ZM77.1708 362.28C77.1708 361.827 76.9574 361.507 76.5308 361.32C76.1041 361.12 75.4708 361.02 74.6308 361.02C73.7908 361.02 73.1574 361.12 72.7308 361.32C72.3041 361.507 72.0908 361.827 72.0908 362.28C72.0908 362.72 72.3041 363.04 72.7308 363.24C73.1574 363.44 73.7908 363.54 74.6308 363.54C75.4708 363.54 76.1041 363.44 76.5308 363.24C76.9574 363.04 77.1708 362.72 77.1708 362.28ZM77.3908 369.9H82.0308V358.6H85.6108V373.36H82.0308V372.42H77.3908V369.9ZM73.6508 372.02V374.44H85.9108V377.14H70.0108V372.02H73.6508ZM67.9708 366.56H81.1708V369.24H76.1108V371.56H72.5508V369.24H67.9708V366.56ZM94.9214 358.82C95.9614 358.82 96.8681 358.94 97.6414 359.18C98.4147 359.407 99.0547 359.74 99.5614 360.18C100.081 360.607 100.461 361.12 100.701 361.72C100.955 362.307 101.081 362.96 101.081 363.68V365.98C101.081 366.7 100.955 367.36 100.701 367.96C100.461 368.547 100.081 369.053 99.5614 369.48C99.0547 369.907 98.4147 370.24 97.6414 370.48C96.8681 370.72 95.9614 370.84 94.9214 370.84C93.8814 370.84 92.9681 370.72 92.1814 370.48C91.4081 370.24 90.7681 369.907 90.2614 369.48C89.7547 369.053 89.3747 368.547 89.1214 367.96C88.8681 367.36 88.7414 366.7 88.7414 365.98V363.68C88.7414 362.96 88.8681 362.307 89.1214 361.72C89.3747 361.12 89.7547 360.607 90.2614 360.18C90.7681 359.74 91.4081 359.407 92.1814 359.18C92.9681 358.94 93.8814 358.82 94.9214 358.82ZM94.9214 367.88C95.7747 367.88 96.4347 367.68 96.9014 367.28C97.3681 366.88 97.6014 366.34 97.6014 365.66V363.98C97.6014 363.3 97.3681 362.76 96.9014 362.36C96.4347 361.96 95.7747 361.76 94.9214 361.76C94.0681 361.76 93.4081 361.96 92.9414 362.36C92.4881 362.76 92.2614 363.3 92.2614 363.98V365.66C92.2614 366.34 92.4881 366.88 92.9414 367.28C93.4081 367.68 94.0681 367.88 94.9214 367.88ZM102.701 358.6H106.301V377.32H102.701V358.6ZM101.841 372.94V376.06H88.4214V372.94H101.841ZM133.428 373.92V376.88H114.628V373.92H118.448V371.66C117.675 371.367 117.081 370.907 116.668 370.28C116.268 369.64 116.068 368.84 116.068 367.88C116.068 366.507 116.461 365.46 117.248 364.74C118.048 364.02 119.195 363.66 120.688 363.66H127.348C128.841 363.66 129.981 364.02 130.768 364.74C131.568 365.46 131.968 366.507 131.968 367.88C131.968 368.84 131.761 369.64 131.348 370.28C130.948 370.907 130.361 371.367 129.588 371.66V373.92H133.428ZM115.388 359.88H122.068V358.16H125.928V359.88H132.648V362.76H115.388V359.88ZM121.668 366.54C121.028 366.54 120.535 366.64 120.188 366.84C119.855 367.027 119.688 367.373 119.688 367.88C119.688 368.773 120.201 369.22 121.228 369.22H126.368C127.008 369.22 127.495 369.127 127.828 368.94C128.175 368.753 128.348 368.4 128.348 367.88C128.348 366.987 127.835 366.54 126.808 366.54H121.668ZM125.948 373.92V372.04H122.088V373.92H125.948ZM135.019 368.06V365.44H153.819V368.06H149.879V368.96H152.539V374.22H139.899V374.96H152.839V377.42H136.279V371.96H148.919V371.24H136.279V368.96H138.939V368.06H135.019ZM152.779 361.64C152.779 362.6 152.459 363.367 151.819 363.94C151.192 364.5 150.212 364.78 148.879 364.78H139.939C139.259 364.78 138.672 364.707 138.179 364.56C137.685 364.4 137.279 364.187 136.959 363.92C136.639 363.64 136.405 363.307 136.259 362.92C136.112 362.533 136.039 362.107 136.039 361.64C136.039 361.16 136.119 360.72 136.279 360.32C136.439 359.92 136.679 359.58 136.999 359.3C137.319 359.007 137.719 358.78 138.199 358.62C138.692 358.447 139.272 358.36 139.939 358.36H148.879C149.572 358.36 150.165 358.447 150.659 358.62C151.152 358.793 151.552 359.033 151.859 359.34C152.179 359.633 152.412 359.98 152.559 360.38C152.705 360.767 152.779 361.187 152.779 361.64ZM149.179 361.64C149.179 361.2 148.892 360.98 148.319 360.98H140.499C139.925 360.98 139.639 361.2 139.639 361.64C139.639 362.08 139.925 362.3 140.499 362.3H148.319C148.892 362.3 149.179 362.08 149.179 361.64ZM146.279 368.06H142.559V368.96H146.279V368.06ZM166.749 362.94H169.509V358.6H173.089V369.78H169.509V365.98H166.749V362.94ZM169.529 377.46V373.44H157.689V370.48H173.089V377.46H169.529ZM163.469 362.02V363.62L168.209 369.32H164.509L161.669 366.04L158.829 369.32H155.129L159.889 363.62V362.02H155.749V358.96H167.829V362.02H163.469ZM5.02281 389.02H8.60281V395.68L13.3628 405.86H9.66281L6.80281 399.36L3.96281 405.86H0.262813L5.02281 395.68V389.02ZM13.9028 388.6H17.4828V395.16H20.1428V398.28H17.4828V407.32H13.9028V388.6ZM39.8734 396.82V399.54H21.0734V396.82H25.1134V395.52C24.0734 395.373 23.3068 395.013 22.8134 394.44C22.3334 393.853 22.0934 393.093 22.0934 392.16C22.0934 391.627 22.1734 391.14 22.3334 390.7C22.4934 390.26 22.7401 389.887 23.0734 389.58C23.4201 389.26 23.8534 389.013 24.3734 388.84C24.9068 388.667 25.5334 388.58 26.2534 388.58H34.6734C35.3934 388.58 36.0134 388.673 36.5334 388.86C37.0534 389.033 37.4801 389.28 37.8134 389.6C38.1601 389.907 38.4134 390.28 38.5734 390.72C38.7468 391.16 38.8334 391.64 38.8334 392.16C38.8334 393.08 38.5934 393.833 38.1134 394.42C37.6468 394.993 36.9134 395.353 35.9134 395.5V396.82H39.8734ZM21.9134 403.86C21.9134 402.767 22.2201 401.933 22.8334 401.36C23.4601 400.773 24.4734 400.48 25.8734 400.48H35.0534C36.4534 400.48 37.4601 400.773 38.0734 401.36C38.7001 401.933 39.0134 402.767 39.0134 403.86C39.0134 404.953 38.7001 405.793 38.0734 406.38C37.4601 406.98 36.4534 407.28 35.0534 407.28H25.8734C24.4734 407.28 23.4601 406.98 22.8334 406.38C22.2201 405.793 21.9134 404.953 21.9134 403.86ZM35.1734 392.16C35.1734 391.573 34.8068 391.28 34.0734 391.28H26.8534C26.1201 391.28 25.7534 391.573 25.7534 392.16C25.7534 392.48 25.8468 392.713 26.0334 392.86C26.2201 392.993 26.4934 393.06 26.8534 393.06H34.0734C34.4334 393.06 34.7068 392.993 34.8934 392.86C35.0801 392.713 35.1734 392.48 35.1734 392.16ZM34.4534 404.62C35.0134 404.62 35.2934 404.367 35.2934 403.86C35.2934 403.353 35.0134 403.1 34.4534 403.1H26.4734C25.9134 403.1 25.6334 403.353 25.6334 403.86C25.6334 404.367 25.9134 404.62 26.4734 404.62H34.4534ZM32.2734 396.82V395.62H28.7534V396.82H32.2734ZM54.9041 388.6H58.4841V395.16H60.9441V398.28H58.4841V407.32H54.9041V388.6ZM54.1241 402.94V406.06H41.1841V402.94H43.8641V396.62H47.5041V402.94H54.1241ZM49.0641 400.38L49.5041 392.54H41.9441V389.46H53.3041C53.1974 391.327 53.0841 393.147 52.9641 394.92C52.8574 396.693 52.7441 398.513 52.6241 400.38H49.0641ZM73.0308 398.62C73.4041 397.487 73.7774 396.38 74.1508 395.3C74.5374 394.22 74.9174 393.113 75.2908 391.98H68.3908V389.02H79.6908L79.2508 390.46H81.8708V388.6H85.4308V399.02H81.8708V397.16H77.9708V394.74L76.7708 398.62H73.0308ZM69.7708 403.42C69.7708 402.247 70.1041 401.307 70.7708 400.6C71.4508 399.88 72.4841 399.52 73.8708 399.52H81.6908C83.0774 399.52 84.1108 399.88 84.7908 400.6C85.4708 401.307 85.8108 402.247 85.8108 403.42C85.8108 404.593 85.4708 405.533 84.7908 406.24C84.1108 406.96 83.0774 407.32 81.6908 407.32H73.8708C72.4841 407.32 71.4508 406.96 70.7708 406.24C70.1041 405.533 69.7708 404.593 69.7708 403.42ZM73.3108 403.42C73.3108 403.833 73.4441 404.107 73.7108 404.24C73.9774 404.387 74.3708 404.46 74.8908 404.46H81.0708C81.8708 404.46 82.2708 404.113 82.2708 403.42C82.2708 403.02 82.1374 402.747 81.8708 402.6C81.6041 402.453 81.2108 402.38 80.6908 402.38H74.5108C74.1108 402.38 73.8108 402.473 73.6108 402.66C73.4108 402.847 73.3108 403.1 73.3108 403.42ZM78.3908 393.32C78.3374 393.507 78.2841 393.693 78.2308 393.88C78.1774 394.053 78.1174 394.233 78.0508 394.42H81.8708V393.32H78.3908ZM103.281 388.6H106.601V407.32H103.281V388.6ZM101.941 407.16H98.6614V398.28H96.5014V395.28H98.6614V388.6H101.941V407.16ZM94.8014 392.5V395.7L98.1414 405.86H94.7614L93.0014 399.82L91.2414 405.86H87.8614L91.2214 395.7V392.5H88.2414V389.44H97.4014V392.5H94.8014ZM119.972 392.94H122.732V388.6H126.312V399.78H122.732V395.98H119.972V392.94ZM122.752 407.46V403.44H110.912V400.48H126.312V407.46H122.752ZM116.692 392.02V393.62L121.432 399.32H117.732L114.892 396.04L112.052 399.32H108.352L113.112 393.62V392.02H108.972V388.96H121.052V392.02H116.692ZM149.279 388.6H152.879V407.32H149.279V388.6ZM141.319 405.98C139.412 405.98 137.992 405.533 137.059 404.64C136.125 403.747 135.659 402.533 135.659 401V393.84C135.659 392.293 136.125 391.08 137.059 390.2C137.992 389.307 139.412 388.86 141.319 388.86C143.225 388.86 144.639 389.307 145.559 390.2C146.479 391.08 146.939 392.293 146.939 393.84V401C146.939 402.533 146.472 403.747 145.539 404.64C144.619 405.533 143.212 405.98 141.319 405.98ZM143.459 394.58C143.459 394.207 143.432 393.86 143.379 393.54C143.325 393.207 143.225 392.92 143.079 392.68C142.932 392.427 142.712 392.227 142.419 392.08C142.139 391.933 141.772 391.86 141.319 391.86C140.852 391.86 140.479 391.933 140.199 392.08C139.919 392.227 139.705 392.427 139.559 392.68C139.412 392.92 139.312 393.207 139.259 393.54C139.205 393.86 139.179 394.207 139.179 394.58V400.24C139.179 400.64 139.205 401.007 139.259 401.34C139.312 401.673 139.412 401.96 139.559 402.2C139.719 402.44 139.939 402.633 140.219 402.78C140.499 402.913 140.865 402.98 141.319 402.98C142.039 402.98 142.572 402.793 142.919 402.42C143.279 402.033 143.459 401.52 143.459 400.88V394.58ZM169.509 388.6H173.089V399.48H169.509V388.6ZM169.529 407.46V403.16H157.689V400.18H173.089V407.46H169.529ZM155.689 393.26C155.689 392.62 155.803 392.007 156.029 391.42C156.256 390.833 156.609 390.313 157.089 389.86C157.583 389.407 158.209 389.047 158.969 388.78C159.743 388.513 160.663 388.38 161.729 388.38C162.809 388.38 163.729 388.513 164.489 388.78C165.249 389.047 165.869 389.407 166.349 389.86C166.843 390.313 167.203 390.833 167.429 391.42C167.656 392.007 167.769 392.62 167.769 393.26V394.48C167.769 395.093 167.656 395.687 167.429 396.26C167.203 396.833 166.843 397.347 166.349 397.8C165.869 398.24 165.249 398.593 164.489 398.86C163.729 399.127 162.809 399.26 161.729 399.26C160.663 399.26 159.743 399.127 158.969 398.86C158.209 398.593 157.583 398.24 157.089 397.8C156.609 397.347 156.256 396.833 156.029 396.26C155.803 395.687 155.689 395.093 155.689 394.48V393.26ZM164.289 393.38C164.289 392.727 164.076 392.213 163.649 391.84C163.223 391.453 162.583 391.26 161.729 391.26C160.849 391.26 160.203 391.453 159.789 391.84C159.376 392.227 159.169 392.74 159.169 393.38V394.36C159.169 395.013 159.383 395.533 159.809 395.92C160.249 396.293 160.889 396.48 161.729 396.48C162.609 396.48 163.256 396.287 163.669 395.9C164.083 395.513 164.289 395 164.289 394.36V393.38Z" fill="#987CE4"/>
<path d="M671.66 360.46H674.76V358.1H678.26V360.46H681.14V363.32H671.66V360.46ZM690.12 377.32H686.8V368.64H685.36V377.16H682.08V358.6H685.36V365.38H686.8V358.6H690.12V377.32ZM676.52 363.96C677.973 363.96 679.053 364.307 679.76 365C680.48 365.68 680.84 366.78 680.84 368.3V371.94C680.84 373.46 680.48 374.56 679.76 375.24C679.053 375.933 677.973 376.28 676.52 376.28C675.067 376.28 673.973 375.933 673.24 375.24C672.52 374.56 672.16 373.46 672.16 371.94V368.3C672.16 366.78 672.52 365.68 673.24 365C673.973 364.307 675.067 363.96 676.52 363.96ZM676.52 366.76C676.08 366.76 675.78 366.887 675.62 367.14C675.473 367.393 675.4 367.767 675.4 368.26V371.98C675.4 372.473 675.473 372.847 675.62 373.1C675.78 373.353 676.08 373.48 676.52 373.48C676.947 373.48 677.24 373.353 677.4 373.1C677.56 372.847 677.64 372.473 677.64 371.98V368.26C677.64 367.767 677.56 367.393 677.4 367.14C677.24 366.887 676.947 366.76 676.52 366.76ZM693.811 373.32C693.811 372.12 694.157 371.153 694.851 370.42C695.544 369.687 696.584 369.32 697.971 369.32H705.471C706.857 369.32 707.897 369.687 708.591 370.42C709.284 371.153 709.631 372.12 709.631 373.32C709.631 374.52 709.284 375.487 708.591 376.22C707.897 376.953 706.857 377.32 705.471 377.32H697.971C696.584 377.32 695.544 376.953 694.851 376.22C694.157 375.487 693.811 374.52 693.811 373.32ZM697.371 373.32C697.371 373.747 697.504 374.04 697.771 374.2C698.051 374.36 698.451 374.44 698.971 374.44H704.491C705.011 374.44 705.404 374.36 705.671 374.2C705.951 374.04 706.091 373.747 706.091 373.32C706.091 372.893 705.951 372.6 705.671 372.44C705.404 372.28 705.011 372.2 704.491 372.2H698.971C698.451 372.2 698.051 372.28 697.771 372.44C697.504 372.6 697.371 372.893 697.371 373.32ZM705.691 358.6H709.271V359.96H711.631V362.86H709.271V364.26H711.631V367.18H709.271V368.82H705.691V358.6ZM692.391 363.22C692.391 362.58 692.497 361.967 692.711 361.38C692.937 360.793 693.284 360.28 693.751 359.84C694.217 359.4 694.824 359.047 695.571 358.78C696.317 358.513 697.224 358.38 698.291 358.38C699.344 358.38 700.244 358.513 700.991 358.78C701.737 359.047 702.344 359.4 702.811 359.84C703.291 360.28 703.637 360.793 703.851 361.38C704.064 361.967 704.171 362.58 704.171 363.22V363.82C704.171 364.447 704.064 365.047 703.851 365.62C703.637 366.18 703.291 366.68 702.811 367.12C702.344 367.56 701.737 367.913 700.991 368.18C700.244 368.433 699.344 368.56 698.291 368.56C697.224 368.56 696.317 368.433 695.571 368.18C694.824 367.913 694.217 367.56 693.751 367.12C693.284 366.68 692.937 366.18 692.711 365.62C692.497 365.047 692.391 364.447 692.391 363.82V363.22ZM700.691 363.34C700.691 362.7 700.497 362.193 700.111 361.82C699.737 361.447 699.131 361.26 698.291 361.26C697.437 361.26 696.817 361.447 696.431 361.82C696.057 362.193 695.871 362.7 695.871 363.34V363.7C695.871 364.34 696.057 364.847 696.431 365.22C696.817 365.593 697.437 365.78 698.291 365.78C699.131 365.78 699.737 365.593 700.111 365.22C700.497 364.847 700.691 364.34 700.691 363.7V363.34ZM726.001 358.6H729.581V365.46H732.101V368.58H729.581V377.32H726.001V358.6ZM720.541 362.5V365.7L725.281 375.86H721.581L718.741 369.44L715.901 375.86H712.201L716.961 365.7V362.5H712.481V359.44H724.861V362.5H720.541ZM745.712 362.28C745.712 362.867 745.605 363.387 745.392 363.84C745.192 364.293 744.852 364.673 744.372 364.98C743.905 365.287 743.292 365.527 742.532 365.7C741.772 365.86 740.845 365.94 739.752 365.94C738.619 365.94 737.665 365.86 736.892 365.7C736.119 365.527 735.492 365.287 735.012 364.98C734.545 364.673 734.205 364.293 733.992 363.84C733.792 363.387 733.692 362.867 733.692 362.28C733.692 361.707 733.799 361.193 734.012 360.74C734.239 360.273 734.592 359.88 735.072 359.56C735.552 359.227 736.172 358.973 736.932 358.8C737.705 358.613 738.645 358.52 739.752 358.52C740.845 358.52 741.772 358.613 742.532 358.8C743.292 358.973 743.905 359.227 744.372 359.56C744.852 359.88 745.192 360.273 745.392 360.74C745.605 361.193 745.712 361.707 745.712 362.28ZM742.292 362.28C742.292 361.827 742.079 361.507 741.652 361.32C741.225 361.12 740.592 361.02 739.752 361.02C738.912 361.02 738.279 361.12 737.852 361.32C737.425 361.507 737.212 361.827 737.212 362.28C737.212 362.72 737.425 363.04 737.852 363.24C738.279 363.44 738.912 363.54 739.752 363.54C740.592 363.54 741.225 363.44 741.652 363.24C742.079 363.04 742.292 362.72 742.292 362.28ZM742.512 369.9H747.152V358.6H750.732V373.36H747.152V372.42H742.512V369.9ZM738.772 372.02V374.44H751.032V377.14H735.132V372.02H738.772ZM733.092 366.56H746.292V369.24H741.232V371.56H737.672V369.24H733.092V366.56ZM773.039 372.64V372.24H761.359V370.02H776.659V374.66H764.999V375.08H776.959V377.42H761.359V372.64H773.039ZM771.579 364.08C771.579 365.013 771.305 365.653 770.759 366C770.225 366.347 769.419 366.52 768.339 366.52H767.539V367.22H772.259V369.52H759.279V367.22H763.879V366.52H763.019C761.939 366.52 761.125 366.347 760.579 366C760.045 365.653 759.779 365.013 759.779 364.08C759.779 363.147 760.045 362.507 760.579 362.16C761.125 361.8 761.939 361.62 763.019 361.62H768.339C769.419 361.62 770.225 361.8 770.759 362.16C771.305 362.507 771.579 363.147 771.579 364.08ZM773.079 358.6H776.659V362.68H778.999V365.8H776.659V369.56H773.079V358.6ZM759.319 359.08H763.879V358.08H767.539V359.08H772.059V361.28H759.319V359.08ZM767.919 364.08C767.919 363.933 767.879 363.847 767.799 363.82C767.719 363.78 767.565 363.76 767.339 363.76H764.019C763.792 363.76 763.632 363.78 763.539 363.82C763.459 363.847 763.419 363.933 763.419 364.08C763.419 364.227 763.459 364.32 763.539 364.36C763.632 364.387 763.792 364.4 764.019 364.4H767.339C767.565 364.4 767.719 364.387 767.799 364.36C767.879 364.32 767.919 364.227 767.919 364.08ZM798.549 366.82V369.54H779.749V366.82H783.789V365.52C782.749 365.373 781.983 365.013 781.489 364.44C781.009 363.853 780.769 363.093 780.769 362.16C780.769 361.627 780.849 361.14 781.009 360.7C781.169 360.26 781.416 359.887 781.749 359.58C782.096 359.26 782.529 359.013 783.049 358.84C783.583 358.667 784.209 358.58 784.929 358.58H793.349C794.069 358.58 794.689 358.673 795.209 358.86C795.729 359.033 796.156 359.28 796.489 359.6C796.836 359.907 797.089 360.28 797.249 360.72C797.423 361.16 797.509 361.64 797.509 362.16C797.509 363.08 797.269 363.833 796.789 364.42C796.323 364.993 795.589 365.353 794.589 365.5V366.82H798.549ZM780.589 373.86C780.589 372.767 780.896 371.933 781.509 371.36C782.136 370.773 783.149 370.48 784.549 370.48H793.729C795.129 370.48 796.136 370.773 796.749 371.36C797.376 371.933 797.689 372.767 797.689 373.86C797.689 374.953 797.376 375.793 796.749 376.38C796.136 376.98 795.129 377.28 793.729 377.28H784.549C783.149 377.28 782.136 376.98 781.509 376.38C780.896 375.793 780.589 374.953 780.589 373.86ZM793.849 362.16C793.849 361.573 793.483 361.28 792.749 361.28H785.529C784.796 361.28 784.429 361.573 784.429 362.16C784.429 362.48 784.523 362.713 784.709 362.86C784.896 362.993 785.169 363.06 785.529 363.06H792.749C793.109 363.06 793.383 362.993 793.569 362.86C793.756 362.713 793.849 362.48 793.849 362.16ZM793.129 374.62C793.689 374.62 793.969 374.367 793.969 373.86C793.969 373.353 793.689 373.1 793.129 373.1H785.149C784.589 373.1 784.309 373.353 784.309 373.86C784.309 374.367 784.589 374.62 785.149 374.62H793.129ZM790.949 366.82V365.62H787.429V366.82H790.949ZM812.316 375.98C810.449 375.98 809.056 375.533 808.136 374.64C807.229 373.747 806.776 372.533 806.776 371V363.84C806.776 362.267 807.223 361.047 808.116 360.18C809.023 359.3 810.423 358.86 812.316 358.86C813.929 358.86 815.169 359.18 816.036 359.82C816.903 360.447 817.456 361.327 817.696 362.46H820.416V358.6H823.996V377.32H820.416V371.76H817.776C817.629 373.08 817.109 374.113 816.216 374.86C815.336 375.607 814.036 375.98 812.316 375.98ZM814.356 364.58C814.356 364.207 814.329 363.86 814.276 363.54C814.236 363.207 814.143 362.92 813.996 362.68C813.849 362.427 813.643 362.227 813.376 362.08C813.109 361.933 812.756 361.86 812.316 361.86C811.876 361.86 811.523 361.933 811.256 362.08C811.003 362.227 810.803 362.427 810.656 362.68C810.509 362.92 810.409 363.207 810.356 363.54C810.316 363.873 810.296 364.22 810.296 364.58V370.24C810.296 370.627 810.323 370.987 810.376 371.32C810.429 371.653 810.529 371.947 810.676 372.2C810.823 372.44 811.023 372.633 811.276 372.78C811.543 372.913 811.889 372.98 812.316 372.98C813.009 372.98 813.523 372.793 813.856 372.42C814.189 372.033 814.356 371.52 814.356 370.88V364.58ZM820.416 368.72V365.5H817.836V368.72H820.416ZM831.807 369.82C832.18 368.527 832.553 367.253 832.927 366C833.313 364.747 833.693 363.473 834.067 362.18H827.067V359.22H838.487C838.313 359.873 838.133 360.527 837.947 361.18C837.773 361.82 837.6 362.467 837.427 363.12H840.527V358.6H844.107V372.16H840.527V366.26H836.587L835.567 369.82H831.807ZM832.667 370.76V374.18H844.467V377.14H829.087V370.76H832.667ZM847.617 373.68H851.297L849.857 378.62H847.157L847.617 373.68ZM686.04 388.6H689.64V407.32H686.04V388.6ZM680.16 392.5V395.7L684.9 405.86H681.2L678.36 399.44L675.52 405.86H671.82L676.58 395.7V392.5H672.1V389.44H684.48V392.5H680.16ZM706.331 397.44H703.211C702.757 398 702.144 398.447 701.371 398.78C700.597 399.1 699.604 399.26 698.391 399.26C697.324 399.26 696.417 399.127 695.671 398.86C694.924 398.593 694.311 398.24 693.831 397.8C693.364 397.347 693.017 396.833 692.791 396.26C692.577 395.687 692.471 395.093 692.471 394.48V393.26C692.471 392.62 692.577 392.007 692.791 391.42C693.017 390.833 693.364 390.313 693.831 389.86C694.311 389.407 694.924 389.047 695.671 388.78C696.417 388.513 697.324 388.38 698.391 388.38C699.604 388.38 700.611 388.56 701.411 388.92C702.224 389.267 702.857 389.72 703.311 390.28H706.331V388.6H709.871V399.48H706.331V397.44ZM706.311 407.46V403.16H694.471V400.18H709.871V407.46H706.311ZM700.831 393.38C700.831 392.727 700.631 392.213 700.231 391.84C699.844 391.453 699.231 391.26 698.391 391.26C697.551 391.26 696.931 391.453 696.531 391.84C696.144 392.227 695.951 392.74 695.951 393.38V394.36C695.951 395.013 696.151 395.533 696.551 395.92C696.964 396.293 697.577 396.48 698.391 396.48C699.244 396.48 699.864 396.287 700.251 395.9C700.637 395.513 700.831 395 700.831 394.36V393.38ZM704.311 393.04V394.7H706.331V393.04H704.311ZM722.917 389.02H726.497V395.68L731.257 405.86H727.557L724.697 399.36L721.857 405.86H718.157L722.917 395.68V389.02ZM731.797 388.6H735.377V395.16H738.037V398.28H735.377V407.32H731.797V388.6ZM752.488 403.14V406.26H739.068V403.14H743.868V401.82C742.375 401.82 741.241 401.46 740.468 400.74C739.695 400.02 739.308 398.993 739.308 397.66C739.308 396.327 739.695 395.287 740.468 394.54C741.255 393.793 742.395 393.42 743.888 393.42H747.348C748.841 393.42 749.975 393.793 750.748 394.54C751.535 395.287 751.928 396.327 751.928 397.66C751.928 398.993 751.561 399.993 750.828 400.66C750.108 401.327 749.021 401.713 747.568 401.82V403.14H752.488ZM753.228 388.6H756.808V407.32H753.228V388.6ZM739.068 389.96H743.808V388.1H747.528V389.96H752.328V392.88H739.068V389.96ZM742.828 397.66C742.828 398.153 742.961 398.5 743.228 398.7C743.508 398.9 743.948 399 744.548 399H747.048C748.021 399 748.508 398.553 748.508 397.66C748.508 397.193 748.368 396.853 748.088 396.64C747.821 396.427 747.388 396.32 746.788 396.32H744.288C743.315 396.32 742.828 396.767 742.828 397.66ZM766.039 388.82C767.079 388.82 767.985 388.94 768.759 389.18C769.532 389.407 770.172 389.74 770.679 390.18C771.199 390.607 771.579 391.12 771.819 391.72C772.072 392.307 772.199 392.96 772.199 393.68V395.98C772.199 396.7 772.072 397.36 771.819 397.96C771.579 398.547 771.199 399.053 770.679 399.48C770.172 399.907 769.532 400.24 768.759 400.48C767.985 400.72 767.079 400.84 766.039 400.84C764.999 400.84 764.085 400.72 763.299 400.48C762.525 400.24 761.885 399.907 761.379 399.48C760.872 399.053 760.492 398.547 760.239 397.96C759.985 397.36 759.859 396.7 759.859 395.98V393.68C759.859 392.96 759.985 392.307 760.239 391.72C760.492 391.12 760.872 390.607 761.379 390.18C761.885 389.74 762.525 389.407 763.299 389.18C764.085 388.94 764.999 388.82 766.039 388.82ZM766.039 397.88C766.892 397.88 767.552 397.68 768.019 397.28C768.485 396.88 768.719 396.34 768.719 395.66V393.98C768.719 393.3 768.485 392.76 768.019 392.36C767.552 391.96 766.892 391.76 766.039 391.76C765.185 391.76 764.525 391.96 764.059 392.36C763.605 392.76 763.379 393.3 763.379 393.98V395.66C763.379 396.34 763.605 396.88 764.059 397.28C764.525 397.68 765.185 397.88 766.039 397.88ZM773.819 388.6H777.419V407.32H773.819V388.6ZM772.959 402.94V406.06H759.539V402.94H772.959ZM802.865 399.84V407.26H787.985V399.84H802.865ZM793.605 392.52V393.62L798.345 398.92H794.485L791.805 396.02L789.205 398.92H785.265L790.025 393.62V392.52H785.885V389.56H789.945V388.08H793.685V389.56H797.965V392.52H793.605ZM799.285 388.6H802.865V392.2H805.285V395.3H802.865V399.16H799.285V388.6ZM791.505 402.62V404.46H799.345V402.62H791.505ZM812.316 405.98C810.449 405.98 809.056 405.533 808.136 404.64C807.229 403.747 806.776 402.533 806.776 401V393.84C806.776 392.267 807.223 391.047 808.116 390.18C809.023 389.3 810.423 388.86 812.316 388.86C813.929 388.86 815.169 389.18 816.036 389.82C816.903 390.447 817.456 391.327 817.696 392.46H820.416V388.6H823.996V407.32H820.416V401.76H817.776C817.629 403.08 817.109 404.113 816.216 404.86C815.336 405.607 814.036 405.98 812.316 405.98ZM814.356 394.58C814.356 394.207 814.329 393.86 814.276 393.54C814.236 393.207 814.143 392.92 813.996 392.68C813.849 392.427 813.643 392.227 813.376 392.08C813.109 391.933 812.756 391.86 812.316 391.86C811.876 391.86 811.523 391.933 811.256 392.08C811.003 392.227 810.803 392.427 810.656 392.68C810.509 392.92 810.409 393.207 810.356 393.54C810.316 393.873 810.296 394.22 810.296 394.58V400.24C810.296 400.627 810.323 400.987 810.376 401.32C810.429 401.653 810.529 401.947 810.676 402.2C810.823 402.44 811.023 402.633 811.276 402.78C811.543 402.913 811.889 402.98 812.316 402.98C813.009 402.98 813.523 402.793 813.856 402.42C814.189 402.033 814.356 401.52 814.356 400.88V394.58ZM820.416 398.72V395.5H817.836V398.72H820.416Z" fill="#5F97E0"/>
<path d="M286.05 407.78C286.05 409.033 286.117 410.093 286.25 410.96C286.383 411.827 286.597 412.533 286.89 413.08C287.183 413.627 287.563 414.02 288.03 414.26C288.51 414.513 289.083 414.64 289.75 414.64V417.46C288.55 417.46 287.51 417.293 286.63 416.96C285.75 416.64 285.023 416.1 284.45 415.34C283.877 414.593 283.45 413.607 283.17 412.38C282.903 411.14 282.77 409.607 282.77 407.78C282.77 405.967 282.903 404.447 283.17 403.22C283.45 401.98 283.877 400.987 284.45 400.24C285.023 399.48 285.75 398.94 286.63 398.62C287.51 398.287 288.55 398.12 289.75 398.12V400.94C289.11 400.94 288.557 401.06 288.09 401.3C287.623 401.527 287.237 401.913 286.93 402.46C286.637 402.993 286.417 403.7 286.27 404.58C286.123 405.447 286.05 406.513 286.05 407.78ZM304.434 408.88H301.274V398.6H304.434V401.96H306.094V398.6H309.314V409.08H306.094V405.16H304.434V408.88ZM293.494 413.44C293.494 412.267 293.834 411.327 294.514 410.62C295.194 409.913 296.227 409.56 297.614 409.56H305.534C306.921 409.56 307.954 409.913 308.634 410.62C309.314 411.327 309.654 412.267 309.654 413.44C309.654 414.613 309.314 415.553 308.634 416.26C307.954 416.967 306.921 417.32 305.534 417.32H297.614C296.227 417.32 295.194 416.967 294.514 416.26C293.834 415.553 293.494 414.613 293.494 413.44ZM297.114 413.44C297.114 413.867 297.241 414.14 297.494 414.26C297.761 414.393 298.161 414.46 298.694 414.46H304.854C305.281 414.46 305.581 414.373 305.754 414.2C305.941 414.027 306.034 413.773 306.034 413.44C306.034 413.04 305.914 412.773 305.674 412.64C305.434 412.493 305.034 412.42 304.474 412.42H298.314C297.514 412.42 297.114 412.76 297.114 413.44ZM294.074 401.52L294.094 398.72H297.674V401.52L301.014 408.52H297.454L295.874 404.96L294.294 408.52H290.734L294.074 401.52ZM324.985 398.6H328.565V403.12H330.885V406.22H328.565V412.26H324.985V398.6ZM317.425 410.82V414.18H328.925V417.14H313.825V410.82H317.425ZM315.865 402.32L315.885 398.92H319.465V402.32L324.205 409.72H320.445L317.665 405.6L314.885 409.72H311.125L315.865 402.32ZM333.955 413.46C333.955 412.287 334.289 411.353 334.955 410.66C335.635 409.953 336.675 409.6 338.075 409.6H345.875C347.275 409.6 348.309 409.953 348.975 410.66C349.655 411.353 349.995 412.287 349.995 413.46C349.995 414.633 349.655 415.567 348.975 416.26C348.309 416.967 347.275 417.32 345.875 417.32H338.075C336.675 417.32 335.635 416.967 334.955 416.26C334.289 415.567 333.955 414.633 333.955 413.46ZM343.095 401.94H346.035V398.6H349.615V409.12H346.035V405.04H343.095V401.94ZM337.555 413.46C337.555 413.86 337.689 414.127 337.955 414.26C338.222 414.407 338.609 414.48 339.115 414.48H345.215C345.629 414.48 345.929 414.387 346.115 414.2C346.302 414.013 346.395 413.767 346.395 413.46C346.395 413.073 346.275 412.807 346.035 412.66C345.795 412.513 345.395 412.44 344.835 412.44H338.755C338.355 412.44 338.055 412.533 337.855 412.72C337.655 412.893 337.555 413.14 337.555 413.46ZM336.315 401.72L336.335 398.62H339.915V401.72L344.655 408.52H340.895L338.115 404.6L335.335 408.52H331.575L336.315 401.72ZM355.926 407.78C355.926 406.5 355.853 405.427 355.706 404.56C355.559 403.693 355.333 402.993 355.026 402.46C354.733 401.913 354.353 401.527 353.886 401.3C353.419 401.06 352.866 400.94 352.226 400.94V398.12C353.426 398.12 354.466 398.287 355.346 398.62C356.226 398.94 356.953 399.48 357.526 400.24C358.099 400.987 358.519 401.98 358.786 403.22C359.066 404.447 359.206 405.967 359.206 407.78C359.206 409.607 359.066 411.14 358.786 412.38C358.506 413.607 358.079 414.593 357.506 415.34C356.946 416.1 356.226 416.64 355.346 416.96C354.466 417.293 353.426 417.46 352.226 417.46V414.64C352.893 414.64 353.459 414.513 353.926 414.26C354.393 414.02 354.773 413.627 355.066 413.08C355.373 412.533 355.593 411.827 355.726 410.96C355.859 410.093 355.926 409.033 355.926 407.78Z" fill="#987CE4"/>
<path d="M491.05 407.78C491.05 409.033 491.117 410.093 491.25 410.96C491.383 411.827 491.597 412.533 491.89 413.08C492.183 413.627 492.563 414.02 493.03 414.26C493.51 414.513 494.083 414.64 494.75 414.64V417.46C493.55 417.46 492.51 417.293 491.63 416.96C490.75 416.64 490.023 416.1 489.45 415.34C488.877 414.593 488.45 413.607 488.17 412.38C487.903 411.14 487.77 409.607 487.77 407.78C487.77 405.967 487.903 404.447 488.17 403.22C488.45 401.98 488.877 400.987 489.45 400.24C490.023 399.48 490.75 398.94 491.63 398.62C492.51 398.287 493.55 398.12 494.75 398.12V400.94C494.11 400.94 493.557 401.06 493.09 401.3C492.623 401.527 492.237 401.913 491.93 402.46C491.637 402.993 491.417 403.7 491.27 404.58C491.123 405.447 491.05 406.513 491.05 407.78ZM500.294 402.3V412.36L508.254 411.72V414.78C506.281 414.94 504.354 415.1 502.474 415.26C500.607 415.433 498.687 415.6 496.714 415.76V399.24H507.374V402.3H500.294ZM509.474 398.6H513.054V405.16H515.754V408.28H513.054V417.32H509.474V398.6ZM518.225 413.32C518.225 412.12 518.571 411.153 519.265 410.42C519.958 409.687 520.998 409.32 522.385 409.32H529.885C531.271 409.32 532.311 409.687 533.005 410.42C533.698 411.153 534.045 412.12 534.045 413.32C534.045 414.52 533.698 415.487 533.005 416.22C532.311 416.953 531.271 417.32 529.885 417.32H522.385C520.998 417.32 519.958 416.953 519.265 416.22C518.571 415.487 518.225 414.52 518.225 413.32ZM521.785 413.32C521.785 413.747 521.918 414.04 522.185 414.2C522.465 414.36 522.865 414.44 523.385 414.44H528.905C529.425 414.44 529.818 414.36 530.085 414.2C530.365 414.04 530.505 413.747 530.505 413.32C530.505 412.893 530.365 412.6 530.085 412.44C529.818 412.28 529.425 412.2 528.905 412.2H523.385C522.865 412.2 522.465 412.28 522.185 412.44C521.918 412.6 521.785 412.893 521.785 413.32ZM530.105 398.6H533.685V399.96H536.045V402.86H533.685V404.26H536.045V407.18H533.685V408.82H530.105V398.6ZM516.805 403.22C516.805 402.58 516.911 401.967 517.125 401.38C517.351 400.793 517.698 400.28 518.165 399.84C518.631 399.4 519.238 399.047 519.985 398.78C520.731 398.513 521.638 398.38 522.705 398.38C523.758 398.38 524.658 398.513 525.405 398.78C526.151 399.047 526.758 399.4 527.225 399.84C527.705 400.28 528.051 400.793 528.265 401.38C528.478 401.967 528.585 402.58 528.585 403.22V403.82C528.585 404.447 528.478 405.047 528.265 405.62C528.051 406.18 527.705 406.68 527.225 407.12C526.758 407.56 526.151 407.913 525.405 408.18C524.658 408.433 523.758 408.56 522.705 408.56C521.638 408.56 520.731 408.433 519.985 408.18C519.238 407.913 518.631 407.56 518.165 407.12C517.698 406.68 517.351 406.18 517.125 405.62C516.911 405.047 516.805 404.447 516.805 403.82V403.22ZM525.105 403.34C525.105 402.7 524.911 402.193 524.525 401.82C524.151 401.447 523.545 401.26 522.705 401.26C521.851 401.26 521.231 401.447 520.845 401.82C520.471 402.193 520.285 402.7 520.285 403.34V403.7C520.285 404.34 520.471 404.847 520.845 405.22C521.231 405.593 521.851 405.78 522.705 405.78C523.545 405.78 524.151 405.593 524.525 405.22C524.911 404.847 525.105 404.34 525.105 403.7V403.34ZM538.955 413.46C538.955 412.287 539.289 411.353 539.955 410.66C540.635 409.953 541.675 409.6 543.075 409.6H550.875C552.275 409.6 553.309 409.953 553.975 410.66C554.655 411.353 554.995 412.287 554.995 413.46C554.995 414.633 554.655 415.567 553.975 416.26C553.309 416.967 552.275 417.32 550.875 417.32H543.075C541.675 417.32 540.635 416.967 539.955 416.26C539.289 415.567 538.955 414.633 538.955 413.46ZM548.095 401.94H551.035V398.6H554.615V409.12H551.035V405.04H548.095V401.94ZM542.555 413.46C542.555 413.86 542.689 414.127 542.955 414.26C543.222 414.407 543.609 414.48 544.115 414.48H550.215C550.629 414.48 550.929 414.387 551.115 414.2C551.302 414.013 551.395 413.767 551.395 413.46C551.395 413.073 551.275 412.807 551.035 412.66C550.795 412.513 550.395 412.44 549.835 412.44H543.755C543.355 412.44 543.055 412.533 542.855 412.72C542.655 412.893 542.555 413.14 542.555 413.46ZM541.315 401.72L541.335 398.62H544.915V401.72L549.655 408.52H545.895L543.115 404.6L540.335 408.52H536.575L541.315 401.72ZM560.926 407.78C560.926 406.5 560.853 405.427 560.706 404.56C560.559 403.693 560.333 402.993 560.026 402.46C559.733 401.913 559.353 401.527 558.886 401.3C558.419 401.06 557.866 400.94 557.226 400.94V398.12C558.426 398.12 559.466 398.287 560.346 398.62C561.226 398.94 561.953 399.48 562.526 400.24C563.099 400.987 563.519 401.98 563.786 403.22C564.066 404.447 564.206 405.967 564.206 407.78C564.206 409.607 564.066 411.14 563.786 412.38C563.506 413.607 563.079 414.593 562.506 415.34C561.946 416.1 561.226 416.64 560.346 416.96C559.466 417.293 558.426 417.46 557.226 417.46V414.64C557.893 414.64 558.459 414.513 558.926 414.26C559.393 414.02 559.773 413.627 560.066 413.08C560.373 412.533 560.593 411.827 560.726 410.96C560.859 410.093 560.926 409.033 560.926 407.78Z" fill="#5F97E0"/>
<path d="M292.179 370.24C292.925 367.973 293.672 365.76 294.419 363.6C295.192 361.44 295.952 359.227 296.699 356.96H282.899V351.04H305.499L304.619 353.92H309.859V350.2H316.979V371.04H309.859V367.32H302.059V362.48L299.659 370.24H292.179ZM285.659 379.84C285.659 377.493 286.325 375.613 287.659 374.2C289.019 372.76 291.085 372.04 293.859 372.04H309.499C312.272 372.04 314.339 372.76 315.699 374.2C317.059 375.613 317.739 377.493 317.739 379.84C317.739 382.187 317.059 384.067 315.699 385.48C314.339 386.92 312.272 387.64 309.499 387.64H293.859C291.085 387.64 289.019 386.92 287.659 385.48C286.325 384.067 285.659 382.187 285.659 379.84ZM292.739 379.84C292.739 380.667 293.005 381.213 293.539 381.48C294.072 381.773 294.859 381.92 295.899 381.92H308.259C309.859 381.92 310.659 381.227 310.659 379.84C310.659 379.04 310.392 378.493 309.859 378.2C309.325 377.907 308.539 377.76 307.499 377.76H295.139C294.339 377.76 293.739 377.947 293.339 378.32C292.939 378.693 292.739 379.2 292.739 379.84ZM302.899 359.64C302.792 360.013 302.685 360.387 302.579 360.76C302.472 361.107 302.352 361.467 302.219 361.84H309.859V359.64H302.899ZM352.68 350.2H359.32V387.64H352.68V350.2ZM350 387.32H343.44V369.56H339.12V363.56H343.44V350.2H350V387.32ZM335.72 358V364.4L342.4 384.72H335.64L332.12 372.64L328.6 384.72H321.84L328.56 364.4V358H322.6V351.88H340.92V358H335.72Z" fill="#987CE4"/>
<path d="M495.499 351.04H502.659V364.36L512.179 384.72H504.779L499.059 371.72L493.379 384.72H485.979L495.499 364.36V351.04ZM513.259 350.2H520.419V363.32H525.739V369.56H520.419V387.64H513.259V350.2ZM554.64 379.28V385.52H527.8V379.28H537.4V376.64C534.413 376.64 532.147 375.92 530.6 374.48C529.053 373.04 528.28 370.987 528.28 368.32C528.28 365.653 529.053 363.573 530.6 362.08C532.173 360.587 534.453 359.84 537.44 359.84H544.36C547.347 359.84 549.613 360.587 551.16 362.08C552.733 363.573 553.52 365.653 553.52 368.32C553.52 370.987 552.787 372.987 551.32 374.32C549.88 375.653 547.707 376.427 544.8 376.64V379.28H554.64ZM556.12 350.2H563.28V387.64H556.12V350.2ZM527.8 352.92H537.28V349.2H544.72V352.92H554.32V358.76H527.8V352.92ZM535.32 368.32C535.32 369.307 535.587 370 536.12 370.4C536.68 370.8 537.56 371 538.76 371H543.76C545.707 371 546.68 370.107 546.68 368.32C546.68 367.387 546.4 366.707 545.84 366.28C545.307 365.853 544.44 365.64 543.24 365.64H538.24C536.293 365.64 535.32 366.533 535.32 368.32Z" fill="#5F97E0"/>
</svg>
