<svg width="20" height="20" viewBox="0 0 20 20" fill="none" xmlns="http://www.w3.org/2000/svg">
<g id="iconoir:wifi-issue">
<g id="Group">
<path id="Vector" d="M1.77166 5.97077C1.60499 5.73018 1.64249 5.4152 1.84333 5.24531C4.40833 3.08177 7.12694 2 9.99916 2C12.8714 2 15.5903 3.08208 18.1558 5.24623C18.3658 5.44091 18.3892 5.75864 18.2267 5.97077L10.3475 16.2311C10.3046 16.2868 10.2513 16.3315 10.1911 16.3623C10.131 16.393 10.0655 16.4089 9.99916 16.4089C9.93287 16.4089 9.86737 16.393 9.80721 16.3623C9.74706 16.3315 9.6937 16.2868 9.65083 16.2311L1.77166 5.97077Z" stroke="#987CE4" stroke-width="2"/>
<path id="Vector_2" d="M10 5.67325V8M10 11.1923L10.0083 11.1822" stroke="#987CE4" stroke-width="2" stroke-linecap="round" stroke-linejoin="round"/>
</g>
</g>
</svg>
