<svg width="18" height="18" viewBox="0 0 18 18" fill="none" xmlns="http://www.w3.org/2000/svg">
<g id="pajamas:issue-new">
<path id="Vector" fill-rule="evenodd" clip-rule="evenodd" d="M3.375 1.125C2.77826 1.125 2.20597 1.36205 1.78401 1.78401C1.36205 2.20597 1.125 2.77826 1.125 3.375V14.625C1.125 15.2217 1.36205 15.794 1.78401 16.216C2.20597 16.6379 2.77826 16.875 3.375 16.875H7.03125C7.25503 16.875 7.46964 16.7861 7.62787 16.6279C7.78611 16.4696 7.875 16.255 7.875 16.0312C7.875 15.8075 7.78611 15.5929 7.62787 15.4346C7.46964 15.2764 7.25503 15.1875 7.03125 15.1875H3.375C3.22582 15.1875 3.08274 15.1282 2.97725 15.0227C2.87176 14.9173 2.8125 14.7742 2.8125 14.625V3.375C2.8125 3.22582 2.87176 3.08274 2.97725 2.97725C3.08274 2.87176 3.22582 2.8125 3.375 2.8125H10.125C10.2742 2.8125 10.4173 2.87176 10.5227 2.97725C10.6282 3.08274 10.6875 3.22582 10.6875 3.375V9.28125C10.6875 9.50503 10.7764 9.71964 10.9346 9.87787C11.0929 10.0361 11.3075 10.125 11.5312 10.125C11.755 10.125 11.9696 10.0361 12.1279 9.87787C12.2861 9.71964 12.375 9.50503 12.375 9.28125V4.9095L14.8387 6.192C14.8717 6.20899 14.901 6.23232 14.9249 6.26065C14.9488 6.28898 14.9668 6.32176 14.978 6.3571C14.9892 6.39243 14.9933 6.42963 14.99 6.46656C14.9868 6.50348 14.9763 6.5394 14.9591 6.57225L13.7531 8.892C13.6581 9.08952 13.6437 9.31625 13.713 9.5242C13.7822 9.73214 13.9297 9.90499 14.1241 10.0062C14.3185 10.1073 14.5447 10.1288 14.7547 10.0662C14.9647 10.0036 15.1421 9.86164 15.2494 9.6705L16.4565 7.35075C16.6974 6.88753 16.7445 6.34758 16.5873 5.84968C16.4301 5.35177 16.0816 4.93669 15.6184 4.69575L12.3424 2.99025C12.2517 2.46795 11.9796 1.99443 11.5739 1.65318C11.1682 1.31193 10.6551 1.12488 10.125 1.125H3.375ZM10.125 14.625C10.125 14.4012 10.2139 14.1866 10.3721 14.0284C10.5304 13.8701 10.745 13.7812 10.9688 13.7812H12.6562V12.0938C12.6562 11.87 12.7451 11.6554 12.9034 11.4971C13.0616 11.3389 13.2762 11.25 13.5 11.25C13.7238 11.25 13.9384 11.3389 14.0966 11.4971C14.2549 11.6554 14.3438 11.87 14.3438 12.0938V13.7812H16.0312C16.255 13.7812 16.4696 13.8701 16.6279 14.0284C16.7861 14.1866 16.875 14.4012 16.875 14.625C16.875 14.8488 16.7861 15.0634 16.6279 15.2216C16.4696 15.3799 16.255 15.4688 16.0312 15.4688H14.3438V17.1562C14.3438 17.38 14.2549 17.5946 14.0966 17.7529C13.9384 17.9111 13.7238 18 13.5 18C13.2762 18 13.0616 17.9111 12.9034 17.7529C12.7451 17.5946 12.6562 17.38 12.6562 17.1562V15.4688H10.9688C10.745 15.4688 10.5304 15.3799 10.3721 15.2216C10.2139 15.0634 10.125 14.8488 10.125 14.625Z" fill="#EEAB3C"/>
</g>
</svg>
