<svg width="18" height="18" viewBox="0 0 18 18" fill="none" xmlns="http://www.w3.org/2000/svg">
<g id="pajamas:issue-type-objective" clip-path="url(#clip0_3_3082)">
<path id="Vector" fill-rule="evenodd" clip-rule="evenodd" d="M14.6666 0.064233C14.8208 0.128099 14.9526 0.236259 15.0453 0.375033C15.138 0.513807 15.1875 0.676961 15.1875 0.843858V2.81261H17.1562C17.323 2.81275 17.486 2.86232 17.6246 2.95504C17.7632 3.04776 17.8713 3.17949 17.9351 3.33357C17.9989 3.48765 18.0156 3.65719 17.9831 3.82076C17.9506 3.98434 17.8703 4.13461 17.7525 4.25261L14.3775 7.62761C14.2194 7.78589 14.0049 7.87491 13.7812 7.87511H13.3571C13.5805 8.7405 13.5412 9.65281 13.2441 10.4957C12.947 11.3387 12.4056 12.0741 11.689 12.6081C10.9723 13.1422 10.1129 13.4508 9.22018 13.4945C8.32749 13.5383 7.442 13.3152 6.67658 12.8537C5.91116 12.3923 5.30048 11.7133 4.92241 10.9035C4.54433 10.0936 4.41598 9.18954 4.55371 8.30645C4.69143 7.42337 5.08901 6.6013 5.69575 5.94504C6.30248 5.28878 7.0909 4.82806 7.96049 4.62161C8.1783 4.56984 8.40775 4.60672 8.59837 4.72413C8.78899 4.84154 8.92516 5.02986 8.97692 5.24767C9.02869 5.46548 8.99181 5.69493 8.8744 5.88555C8.75699 6.07617 8.56867 6.21234 8.35086 6.26411C7.78865 6.39723 7.28108 6.70027 6.89716 7.13202C6.51324 7.56377 6.2716 8.10328 6.20509 8.67719C6.13859 9.25111 6.25045 9.83158 6.52546 10.3397C6.80047 10.8478 7.22529 11.2589 7.74216 11.517C8.25903 11.7752 8.84287 11.8679 9.41429 11.7826C9.98571 11.6973 10.517 11.438 10.9359 11.0401C11.3548 10.6422 11.641 10.1249 11.7555 9.55867C11.8701 8.99238 11.8075 8.40456 11.5762 7.87511H11.3175L9.59624 9.59636C9.51899 9.67926 9.42584 9.74575 9.32234 9.79186C9.21884 9.83798 9.10711 9.86277 8.99382 9.86477C8.88053 9.86677 8.768 9.84593 8.66294 9.8035C8.55788 9.76106 8.46244 9.6979 8.38232 9.61778C8.3022 9.53765 8.23903 9.44222 8.1966 9.33716C8.15416 9.23209 8.13332 9.11956 8.13532 9.00627C8.13732 8.89298 8.16212 8.78125 8.20823 8.67775C8.25435 8.57425 8.32084 8.4811 8.40374 8.40386L10.125 6.68261V4.21886C10.1252 3.99516 10.2142 3.78069 10.3725 3.62261L13.7475 0.247608C13.8654 0.129605 14.0157 0.0492038 14.1792 0.0165648C14.3428 -0.0160742 14.5124 0.000513987 14.6666 0.064233ZM11.8125 4.56873V6.18761H13.4325L15.12 4.50011H13.5V2.88011L11.8125 4.56873ZM5.42249 2.62136C6.74016 1.88224 8.25442 1.56941 9.75711 1.72586C9.86732 1.73731 9.97871 1.72694 10.0849 1.69534C10.1911 1.66374 10.2901 1.61153 10.3761 1.5417C10.4621 1.47186 10.5335 1.38577 10.5863 1.28833C10.6391 1.19088 10.6721 1.08401 10.6835 0.973795C10.695 0.863584 10.6846 0.752196 10.653 0.645992C10.6214 0.539788 10.5692 0.440847 10.4994 0.35482C10.4296 0.268792 10.3435 0.197362 10.246 0.144607C10.1486 0.091853 10.0417 0.0588076 9.93149 0.047358C8.08184 -0.145097 6.21799 0.240135 4.5962 1.15009C2.9744 2.06004 1.6743 3.45003 0.874645 5.12895C0.0749879 6.80788 -0.18496 8.69328 0.130542 10.526C0.446044 12.3586 1.3215 14.0486 2.63655 15.3634C3.9516 16.6783 5.64167 17.5535 7.47439 17.8688C9.3071 18.184 11.1925 17.9238 12.8713 17.1239C14.5501 16.324 15.9399 15.0237 16.8496 13.4018C17.7594 11.7799 18.1443 9.91598 17.9516 8.06636C17.9402 7.95615 17.9071 7.84927 17.8544 7.75183C17.8016 7.65439 17.7302 7.56829 17.6441 7.49846C17.5581 7.42862 17.4592 7.37641 17.353 7.34481C17.2468 7.31322 17.1354 7.30285 17.0252 7.3143C16.915 7.32575 16.8081 7.35879 16.7106 7.41155C16.6132 7.4643 16.5271 7.53573 16.4573 7.62176C16.3874 7.70778 16.3352 7.80673 16.3036 7.91293C16.272 8.01913 16.2617 8.13052 16.2731 8.24073C16.4101 9.55331 16.1894 10.8785 15.6343 12.0758C15.0792 13.2731 14.2105 14.2978 13.1202 15.0414C12.0299 15.7849 10.7587 16.2196 9.44137 16.2992C8.12407 16.3788 6.80977 16.1005 5.63784 15.4937C4.46592 14.8869 3.48004 13.9742 2.78477 12.8525C2.0895 11.7308 1.71074 10.4419 1.68866 9.12236C1.66658 7.80284 2.00201 6.50194 2.65937 5.3576C3.31673 4.21326 4.27151 3.26815 5.42249 2.62248V2.62136Z" fill="#F477C7"/>
</g>
<defs>
<clipPath id="clip0_3_3082">
<rect width="18" height="18" fill="white"/>
</clipPath>
</defs>
</svg>
